<svg width="12" height="20" viewBox="0 0 12 20" fill="none" xmlns="http://www.w3.org/2000/svg">
<path d="M0.716797 19.375C0.45638 19.1146 0.326172 18.8062 0.326172 18.45C0.326172 18.0944 0.45638 17.7865 0.716797 17.526L8.34701 9.89583L0.690755 2.23958C0.4477 1.99653 0.326172 1.69271 0.326172 1.32812C0.326172 0.963542 0.45638 0.651042 0.716797 0.390625C0.977214 0.130208 1.28555 0 1.6418 0C1.99735 0 2.30534 0.130208 2.56576 0.390625L11.3158 9.16667C11.4199 9.27083 11.4939 9.38368 11.5376 9.50521C11.5807 9.62674 11.6022 9.75694 11.6022 9.89583C11.6022 10.0347 11.5807 10.1649 11.5376 10.2865C11.4939 10.408 11.4199 10.5208 11.3158 10.625L2.53971 19.401C2.29666 19.6441 1.99735 19.7656 1.6418 19.7656C1.28555 19.7656 0.977214 19.6354 0.716797 19.375Z" fill="black"/>
</svg>
