<svg width="31" height="31" viewBox="0 0 31 31" fill="none" xmlns="http://www.w3.org/2000/svg">
<path d="M26.5027 22.0106C26.1856 22.3185 25.8134 22.4693 25.3859 22.4631C24.9593 22.4568 24.592 22.2952 24.2841 21.9782L15.2626 12.6892L5.9419 21.7415C5.646 22.0288 5.27932 22.1693 4.84187 22.1629C4.40442 22.1565 4.03174 21.9948 3.72384 21.6778C3.41594 21.3608 3.26511 20.9885 3.27135 20.5611C3.27759 20.1344 3.43922 19.7672 3.75625 19.4593L14.4398 9.11425C14.5666 8.99109 14.7033 8.90432 14.8499 8.85396C14.9964 8.80443 15.153 8.78088 15.3197 8.78332C15.4863 8.78575 15.6422 8.81387 15.7873 8.86766C15.9323 8.92228 16.0664 9.013 16.1896 9.13981L26.5659 19.8238C26.8532 20.1197 26.9938 20.4809 26.9876 20.9076C26.9813 21.335 26.8197 21.7027 26.5027 22.0106Z" fill="white"/>
</svg>
