<svg width="25" height="26" viewBox="0 0 25 26" fill="none" xmlns="http://www.w3.org/2000/svg">
<path d="M25 13C25 19.9036 19.4036 25.5 12.5 25.5C5.59644 25.5 0 19.9036 0 13C0 6.09644 5.59644 0.5 12.5 0.5C19.4036 0.5 25 6.09644 25 13Z" fill="white"/>
<path d="M13.0487 20.6428C11.9158 20.6428 10.9073 20.4883 10.0231 20.1793C9.13885 19.8739 8.39134 19.4247 7.78054 18.8317C7.16974 18.2422 6.70455 17.5213 6.38494 16.669C6.06534 15.8168 5.90554 14.8473 5.90554 13.7607C5.90554 12.6882 6.06534 11.7152 6.38494 10.8416C6.7081 9.96804 7.17862 9.21875 7.79652 8.59375C8.41442 7.9652 9.16903 7.48224 10.0604 7.14489C10.9553 6.80753 11.9744 6.63885 13.1179 6.63885C14.1761 6.63885 15.1207 6.79332 15.9517 7.10227C16.7862 7.41122 17.4929 7.85156 18.0717 8.4233C18.6541 8.99148 19.0962 9.66797 19.3981 10.4528C19.7035 11.234 19.8544 12.0987 19.8509 13.0469C19.8544 13.7003 19.7976 14.3004 19.6804 14.8473C19.5632 15.3942 19.3786 15.8718 19.1264 16.2802C18.8778 16.685 18.5511 17.0064 18.1463 17.2443C17.7415 17.4787 17.2514 17.6119 16.6761 17.6438C16.2642 17.6758 15.9304 17.6456 15.6747 17.5533C15.419 17.4609 15.2237 17.3242 15.0888 17.1431C14.9574 16.9585 14.8722 16.7436 14.8331 16.4986H14.7692C14.6839 16.7116 14.517 16.9052 14.2685 17.0792C14.0199 17.2496 13.7163 17.3828 13.3576 17.4787C13.0025 17.571 12.6243 17.6048 12.223 17.5799C11.804 17.555 11.4062 17.4574 11.0298 17.2869C10.657 17.1165 10.3249 16.8697 10.0337 16.5465C9.74609 16.2234 9.51882 15.8239 9.35192 15.348C9.18857 14.8722 9.10511 14.3217 9.10156 13.6967C9.10511 13.0788 9.19212 12.5408 9.36257 12.0827C9.53658 11.6246 9.76562 11.2393 10.0497 10.9268C10.3374 10.6143 10.657 10.3693 11.0085 10.1918C11.3601 10.0142 11.7134 9.90057 12.0685 9.85085C12.4698 9.79048 12.8498 9.79048 13.2085 9.85085C13.5671 9.91122 13.869 10.0089 14.114 10.1438C14.3626 10.2788 14.517 10.4244 14.5774 10.5806H14.652V9.98402H16.3192V15.1829C16.3228 15.4279 16.3778 15.6179 16.4844 15.7528C16.5909 15.8878 16.7347 15.9553 16.9158 15.9553C17.1609 15.9553 17.3651 15.8469 17.5284 15.6303C17.6953 15.4137 17.8196 15.0817 17.9013 14.6342C17.9865 14.1868 18.0291 13.6168 18.0291 12.9244C18.0291 12.2567 17.9403 11.6708 17.7628 11.1665C17.5888 10.6587 17.3438 10.2273 17.0277 9.87216C16.7152 9.51349 16.3512 9.2223 15.9357 8.99858C15.5202 8.77486 15.0692 8.61151 14.5827 8.50852C14.0998 8.40554 13.6026 8.35405 13.0913 8.35405C12.207 8.35405 11.4347 8.48899 10.7741 8.75888C10.1136 9.02521 9.56321 9.39986 9.12287 9.88281C8.68253 10.3658 8.35227 10.9322 8.1321 11.582C7.91548 12.2283 7.8054 12.9332 7.80185 13.6967C7.8054 14.5384 7.92259 15.2841 8.15341 15.9339C8.38778 16.5803 8.73224 17.1236 9.18679 17.5639C9.64134 18.0043 10.2024 18.3381 10.87 18.5653C11.5376 18.7926 12.3047 18.9062 13.1712 18.9062C13.5795 18.9062 13.979 18.8761 14.3697 18.8157C14.7603 18.7589 15.1136 18.6879 15.4297 18.6026C15.7457 18.521 15.9996 18.4411 16.1914 18.3629L16.7188 19.9077C16.495 20.0355 16.1914 20.1545 15.8079 20.2646C15.4279 20.3782 14.9982 20.4688 14.5188 20.5362C14.043 20.6072 13.5529 20.6428 13.0487 20.6428ZM12.8036 15.8274C13.2369 15.8274 13.5813 15.744 13.837 15.5771C14.0962 15.4102 14.2809 15.1634 14.391 14.8366C14.5046 14.5064 14.5579 14.0998 14.5508 13.6168C14.5472 13.1907 14.4922 12.8303 14.3857 12.5355C14.2827 12.2372 14.1033 12.0117 13.8477 11.859C13.5955 11.7028 13.244 11.6246 12.793 11.6246C12.3988 11.6246 12.0632 11.7081 11.7862 11.875C11.5128 12.0419 11.3033 12.2763 11.1577 12.5781C11.0156 12.8764 10.9428 13.228 10.9393 13.6328C10.9428 14.0092 11.0032 14.3661 11.1204 14.7035C11.2376 15.0373 11.4311 15.3089 11.701 15.5185C11.9709 15.7244 12.3384 15.8274 12.8036 15.8274Z" fill="black"/>
</svg>
