<svg width="131" height="50" viewBox="0 0 131 50" fill="none" xmlns="http://www.w3.org/2000/svg">
<path d="M19.229 14.6729L26.7796 10L34.7664 14.4393L26.7796 19.2385L19.229 14.6729Z" fill="#9D84B8"/>
<path d="M26.7056 19.229L34.7664 14.4393L35 24.1355L27.0561 28.4579L26.7056 19.229Z" fill="#9D84B8"/>
<path d="M35 25.4206L27.0561 30.2103L18.7617 25.5374L18.6449 34.6495L27.0561 39.3224L35 34.8832V25.4206Z" fill="#9D84B8"/>
<path d="M17.5935 15.3738L10 19.8131V29.743L17.7103 34.1822V24.0187L25.1869 19.8131L17.5935 15.3738Z" fill="#9D84B8"/>
<path d="M47.5352 18.9424V33.1612H45.6504V18.9424H47.5352ZM53.4922 25.3389V26.8819H47.125V25.3389H53.4922ZM54.459 18.9424V20.4854H47.125V18.9424H54.459ZM57.9844 24.2549V33.1612H56.1777V22.5948H57.9355L57.9844 24.2549ZM61.2852 22.5362L61.2754 24.2159C61.1257 24.1833 60.9824 24.1638 60.8457 24.1573C60.7155 24.1443 60.5658 24.1378 60.3965 24.1378C59.9798 24.1378 59.612 24.2029 59.293 24.3331C58.974 24.4633 58.7038 24.6456 58.4824 24.8799C58.2611 25.1143 58.0853 25.3943 57.9551 25.7198C57.8314 26.0388 57.75 26.3904 57.7109 26.7745L57.2031 27.0674C57.2031 26.4294 57.265 25.8305 57.3887 25.2706C57.5189 24.7107 57.7174 24.2159 57.9844 23.7862C58.2513 23.35 58.5898 23.0115 59 22.7706C59.4167 22.5232 59.9115 22.3995 60.4844 22.3995C60.6146 22.3995 60.7643 22.4158 60.9336 22.4483C61.1029 22.4743 61.2201 22.5036 61.2852 22.5362ZM67.1445 33.3565C66.4089 33.3565 65.7415 33.2328 65.1426 32.9854C64.5501 32.7315 64.0391 32.3767 63.6094 31.921C63.1862 31.4652 62.8607 30.9249 62.6328 30.2999C62.4049 29.6749 62.291 28.9913 62.291 28.2491V27.8389C62.291 26.9796 62.418 26.2146 62.6719 25.544C62.9258 24.8669 63.2708 24.294 63.707 23.8253C64.1432 23.3565 64.638 23.0017 65.1914 22.7608C65.7448 22.5199 66.3177 22.3995 66.9102 22.3995C67.6654 22.3995 68.3164 22.5297 68.8633 22.7901C69.4167 23.0505 69.8691 23.4151 70.2207 23.8839C70.5723 24.3461 70.8327 24.893 71.002 25.5245C71.1712 26.1495 71.2559 26.8331 71.2559 27.5753V28.3858H63.3652V26.9112H69.4492V26.7745C69.4232 26.3057 69.3255 25.85 69.1562 25.4073C68.9935 24.9646 68.7331 24.6 68.375 24.3135C68.0169 24.0271 67.5286 23.8839 66.9102 23.8839C66.5 23.8839 66.1224 23.9717 65.7773 24.1475C65.4323 24.3168 65.1361 24.5707 64.8887 24.9092C64.6413 25.2478 64.4492 25.6612 64.3125 26.1495C64.1758 26.6378 64.1074 27.2009 64.1074 27.8389V28.2491C64.1074 28.7504 64.1758 29.2224 64.3125 29.6651C64.4557 30.1013 64.6608 30.4854 64.9277 30.8174C65.2012 31.1495 65.5299 31.4099 65.9141 31.5987C66.3047 31.7875 66.7474 31.8819 67.2422 31.8819C67.8802 31.8819 68.4206 31.7517 68.8633 31.4913C69.306 31.2309 69.6934 30.8825 70.0254 30.4464L71.1191 31.3155C70.8913 31.6605 70.6016 31.9893 70.25 32.3018C69.8984 32.6143 69.4655 32.8682 68.9512 33.0635C68.4434 33.2589 67.8411 33.3565 67.1445 33.3565ZM77.75 33.3565C77.0143 33.3565 76.347 33.2328 75.748 32.9854C75.1556 32.7315 74.6445 32.3767 74.2148 31.921C73.7917 31.4652 73.4661 30.9249 73.2383 30.2999C73.0104 29.6749 72.8965 28.9913 72.8965 28.2491V27.8389C72.8965 26.9796 73.0234 26.2146 73.2773 25.544C73.5312 24.8669 73.8763 24.294 74.3125 23.8253C74.7487 23.3565 75.2435 23.0017 75.7969 22.7608C76.3503 22.5199 76.9232 22.3995 77.5156 22.3995C78.2708 22.3995 78.9219 22.5297 79.4688 22.7901C80.0221 23.0505 80.4746 23.4151 80.8262 23.8839C81.1777 24.3461 81.4382 24.893 81.6074 25.5245C81.7767 26.1495 81.8613 26.8331 81.8613 27.5753V28.3858H73.9707V26.9112H80.0547V26.7745C80.0286 26.3057 79.931 25.85 79.7617 25.4073C79.599 24.9646 79.3385 24.6 78.9805 24.3135C78.6224 24.0271 78.1341 23.8839 77.5156 23.8839C77.1055 23.8839 76.7279 23.9717 76.3828 24.1475C76.0378 24.3168 75.7415 24.5707 75.4941 24.9092C75.2467 25.2478 75.0547 25.6612 74.918 26.1495C74.7812 26.6378 74.7129 27.2009 74.7129 27.8389V28.2491C74.7129 28.7504 74.7812 29.2224 74.918 29.6651C75.0612 30.1013 75.2663 30.4854 75.5332 30.8174C75.8066 31.1495 76.1354 31.4099 76.5195 31.5987C76.9102 31.7875 77.3529 31.8819 77.8477 31.8819C78.4857 31.8819 79.026 31.7517 79.4688 31.4913C79.9115 31.2309 80.2988 30.8825 80.6309 30.4464L81.7246 31.3155C81.4967 31.6605 81.207 31.9893 80.8555 32.3018C80.5039 32.6143 80.071 32.8682 79.5566 33.0635C79.0488 33.2589 78.4466 33.3565 77.75 33.3565ZM85.9336 18.1612V33.1612H84.1172V18.1612H85.9336ZM95.0645 31.3546V25.9151C95.0645 25.4984 94.9798 25.1371 94.8105 24.8311C94.6478 24.5186 94.4004 24.2777 94.0684 24.1085C93.7363 23.9392 93.3262 23.8546 92.8379 23.8546C92.3822 23.8546 91.9818 23.9327 91.6367 24.0889C91.2982 24.2452 91.0312 24.4503 90.8359 24.7042C90.6471 24.9581 90.5527 25.2315 90.5527 25.5245H88.7461C88.7461 25.1469 88.8438 24.7725 89.0391 24.4014C89.2344 24.0303 89.5143 23.695 89.8789 23.3956C90.25 23.0896 90.6927 22.8487 91.207 22.6729C91.7279 22.4906 92.3073 22.3995 92.9453 22.3995C93.7135 22.3995 94.3906 22.5297 94.9766 22.7901C95.569 23.0505 96.0312 23.4444 96.3633 23.9717C96.7018 24.4926 96.8711 25.1469 96.8711 25.9346V30.8565C96.8711 31.2081 96.9004 31.5824 96.959 31.9796C97.0241 32.3767 97.1185 32.7185 97.2422 33.0049V33.1612H95.3574C95.2663 32.9529 95.1947 32.6762 95.1426 32.3311C95.0905 31.9796 95.0645 31.654 95.0645 31.3546ZM95.377 26.7549L95.3965 28.0245H93.5703C93.056 28.0245 92.597 28.0668 92.1934 28.1514C91.7897 28.2296 91.4512 28.35 91.1777 28.5128C90.9043 28.6755 90.696 28.8806 90.5527 29.128C90.4095 29.3689 90.3379 29.6521 90.3379 29.9776C90.3379 30.3096 90.4128 30.6124 90.5625 30.8858C90.7122 31.1592 90.9368 31.3773 91.2363 31.5401C91.5423 31.6964 91.9167 31.7745 92.3594 31.7745C92.9128 31.7745 93.401 31.6573 93.8242 31.4229C94.2474 31.1885 94.5827 30.9021 94.8301 30.5635C95.084 30.225 95.2207 29.8962 95.2402 29.5772L96.0117 30.4464C95.9661 30.7198 95.8424 31.0225 95.6406 31.3546C95.4388 31.6866 95.1686 32.0056 94.8301 32.3116C94.498 32.6111 94.1009 32.8617 93.6387 33.0635C93.1829 33.2589 92.6686 33.3565 92.0957 33.3565C91.3796 33.3565 90.7513 33.2165 90.2109 32.9366C89.6771 32.6566 89.2604 32.2823 88.9609 31.8135C88.668 31.3383 88.5215 30.8077 88.5215 30.2217C88.5215 29.6553 88.6322 29.1573 88.8535 28.7276C89.0749 28.2914 89.3939 27.9301 89.8105 27.6436C90.2272 27.3506 90.7285 27.1293 91.3145 26.9796C91.9004 26.8298 92.5547 26.7549 93.2773 26.7549H95.377ZM101.52 24.8506V33.1612H99.7129V22.5948H101.422L101.52 24.8506ZM101.09 27.4776L100.338 27.4483C100.344 26.7256 100.452 26.0583 100.66 25.4464C100.868 24.8279 101.161 24.2908 101.539 23.835C101.917 23.3793 102.366 23.0277 102.887 22.7803C103.414 22.5264 103.997 22.3995 104.635 22.3995C105.156 22.3995 105.624 22.4711 106.041 22.6143C106.458 22.751 106.812 22.9724 107.105 23.2784C107.405 23.5844 107.633 23.9815 107.789 24.4698C107.945 24.9516 108.023 25.5408 108.023 26.2374V33.1612H106.207V26.2178C106.207 25.6644 106.126 25.2217 105.963 24.8897C105.8 24.5512 105.562 24.307 105.25 24.1573C104.938 24.001 104.553 23.9229 104.098 23.9229C103.648 23.9229 103.238 24.0173 102.867 24.2061C102.503 24.3949 102.187 24.6553 101.92 24.9874C101.66 25.3194 101.454 25.7003 101.305 26.1299C101.161 26.5531 101.09 27.0023 101.09 27.4776ZM114.996 31.8721C115.426 31.8721 115.823 31.7842 116.188 31.6085C116.552 31.4327 116.852 31.1918 117.086 30.8858C117.32 30.5733 117.454 30.2185 117.486 29.8214H119.205C119.173 30.4464 118.961 31.029 118.57 31.5694C118.186 32.1033 117.682 32.5362 117.057 32.8682C116.432 33.1937 115.745 33.3565 114.996 33.3565C114.202 33.3565 113.508 33.2165 112.916 32.9366C112.33 32.6566 111.842 32.2725 111.451 31.7842C111.067 31.296 110.777 30.7361 110.582 30.1046C110.393 29.4665 110.299 28.7927 110.299 28.0831V27.6729C110.299 26.9633 110.393 26.2927 110.582 25.6612C110.777 25.0232 111.067 24.46 111.451 23.9717C111.842 23.4835 112.33 23.0993 112.916 22.8194C113.508 22.5394 114.202 22.3995 114.996 22.3995C115.823 22.3995 116.546 22.5687 117.164 22.9073C117.783 23.2393 118.268 23.695 118.619 24.2745C118.977 24.8474 119.173 25.4984 119.205 26.2276H117.486C117.454 25.7914 117.33 25.3975 117.115 25.046C116.907 24.6944 116.62 24.4144 116.256 24.2061C115.898 23.9913 115.478 23.8839 114.996 23.8839C114.443 23.8839 113.977 23.9945 113.6 24.2159C113.229 24.4307 112.932 24.7237 112.711 25.0948C112.496 25.4594 112.34 25.8663 112.242 26.3155C112.151 26.7582 112.105 27.2107 112.105 27.6729V28.0831C112.105 28.5453 112.151 29.001 112.242 29.4503C112.333 29.8995 112.486 30.3064 112.701 30.671C112.923 31.0355 113.219 31.3285 113.59 31.5499C113.967 31.7647 114.436 31.8721 114.996 31.8721ZM125.621 33.3565C124.885 33.3565 124.218 33.2328 123.619 32.9854C123.027 32.7315 122.516 32.3767 122.086 31.921C121.663 31.4652 121.337 30.9249 121.109 30.2999C120.882 29.6749 120.768 28.9913 120.768 28.2491V27.8389C120.768 26.9796 120.895 26.2146 121.148 25.544C121.402 24.8669 121.747 24.294 122.184 23.8253C122.62 23.3565 123.115 23.0017 123.668 22.7608C124.221 22.5199 124.794 22.3995 125.387 22.3995C126.142 22.3995 126.793 22.5297 127.34 22.7901C127.893 23.0505 128.346 23.4151 128.697 23.8839C129.049 24.3461 129.309 24.893 129.479 25.5245C129.648 26.1495 129.732 26.8331 129.732 27.5753V28.3858H121.842V26.9112H127.926V26.7745C127.9 26.3057 127.802 25.85 127.633 25.4073C127.47 24.9646 127.21 24.6 126.852 24.3135C126.493 24.0271 126.005 23.8839 125.387 23.8839C124.977 23.8839 124.599 23.9717 124.254 24.1475C123.909 24.3168 123.613 24.5707 123.365 24.9092C123.118 25.2478 122.926 25.6612 122.789 26.1495C122.652 26.6378 122.584 27.2009 122.584 27.8389V28.2491C122.584 28.7504 122.652 29.2224 122.789 29.6651C122.932 30.1013 123.137 30.4854 123.404 30.8174C123.678 31.1495 124.007 31.4099 124.391 31.5987C124.781 31.7875 125.224 31.8819 125.719 31.8819C126.357 31.8819 126.897 31.7517 127.34 31.4913C127.783 31.2309 128.17 30.8825 128.502 30.4464L129.596 31.3155C129.368 31.6605 129.078 31.9893 128.727 32.3018C128.375 32.6143 127.942 32.8682 127.428 33.0635C126.92 33.2589 126.318 33.3565 125.621 33.3565Z" fill="white"/>
</svg>
