<svg width="35" height="19" viewBox="0 0 35 19" fill="none" xmlns="http://www.w3.org/2000/svg">
<rect width="35" height="19" fill="#F5F5F5"/>
<path d="M15.3906 19.8594L16.3598 20.1058L16.3603 20.1038L15.3906 19.8594ZM14.0156 22.9219L13.2132 22.3252L13.2119 22.3269L14.0156 22.9219ZM11.8281 24.7188L11.4118 23.8095L11.4077 23.8114L11.8281 24.7188ZM4.53125 23.7969L3.85184 24.5306L3.85888 24.5372L3.86604 24.5435L4.53125 23.7969ZM2.1875 19.0938L1.20618 19.2862L1.20655 19.288L2.1875 19.0938ZM2.34375 7.32812L1.37707 7.072L1.37509 7.07975L2.34375 7.32812ZM3.71875 4.29688L2.91997 3.6952L2.91501 3.7019L3.71875 4.29688ZM5.92188 2.51562L6.32905 3.42903L6.33815 3.42486L5.92188 2.51562ZM11.2656 2.3125L10.9293 3.25424L10.9373 3.25711L10.9454 3.25984L11.2656 2.3125ZM13.2188 3.4375L12.5544 4.18494L12.5612 4.19092L13.2188 3.4375ZM14.6562 5.35938L13.7594 5.8018L13.763 5.80902L13.7667 5.81618L14.6562 5.35938ZM15.5469 8.09375L14.5641 8.27863L14.5659 8.288L15.5469 8.09375ZM13.7812 8.625L12.7938 8.78348L12.7959 8.79531L13.7812 8.625ZM12.1406 4.8125L11.416 5.50177L11.4248 5.51082L12.1406 4.8125ZM10.7031 3.85938L10.3287 4.78662L10.3393 4.79092L10.3501 4.79498L10.7031 3.85938ZM6.625 4.04688L7.08956 4.93244L7.09485 4.92962L6.625 4.04688ZM5.03125 5.54688L5.86941 6.09235L5.87328 6.0863L5.03125 5.54688ZM4.0625 8.01562L3.08602 7.79977L3.08395 7.80961L4.0625 8.01562ZM3.95312 18.5156L2.96576 18.6741L2.96607 18.676L3.95312 18.5156ZM5.60938 22.375L4.86866 23.0468L4.87684 23.0558L4.88524 23.0647L5.60938 22.375ZM7.04688 23.375L6.65724 24.296L6.66782 24.3004L6.67851 24.3047L7.04688 23.375ZM11.1406 23.1875L11.6165 24.0671L11.6275 24.061L11.1406 23.1875ZM12.7344 21.6406L13.5802 22.1741L13.5838 22.1683L12.7344 21.6406ZM13.6875 19.125L14.6661 19.331L14.6665 19.329L13.6875 19.125ZM14.8594 11.6719V15.5H16.8594V11.6719H14.8594ZM14.8594 15.5C14.8594 17.1077 14.7083 18.4752 14.421 19.6149L16.3603 20.1038C16.698 18.7644 16.8594 17.2257 16.8594 15.5H14.8594ZM14.4215 19.613C14.1333 20.7464 13.7225 21.6403 13.2132 22.3252L14.8181 23.5186C15.5171 22.5785 16.023 21.4306 16.3598 20.1058L14.4215 19.613ZM13.2119 22.3269C12.7135 23.0001 12.1151 23.4875 11.4118 23.8095L12.2444 25.628C13.2703 25.1583 14.1302 24.4478 14.8194 23.5169L13.2119 22.3269ZM11.4077 23.8114C10.7061 24.1365 9.87446 24.3125 8.89062 24.3125V26.3125C10.1151 26.3125 11.2418 26.0926 12.2486 25.6261L11.4077 23.8114ZM8.89062 24.3125C8.11127 24.3125 7.42042 24.2013 6.8087 23.9916L6.16005 25.8834C7.00666 26.1737 7.91998 26.3125 8.89062 26.3125V24.3125ZM6.8087 23.9916C6.20468 23.7845 5.66965 23.4718 5.19646 23.0502L3.86604 24.5435C4.53868 25.1428 5.30574 25.5905 6.16005 25.8834L6.8087 23.9916ZM5.21066 23.0631C4.74664 22.6335 4.33556 22.0821 3.98579 21.3918L2.20171 22.2957C2.64361 23.1679 3.19086 23.9186 3.85184 24.5306L5.21066 23.0631ZM3.98579 21.3918C3.63924 20.7078 3.36287 19.8813 3.16845 18.8995L1.20655 19.288C1.4288 20.4104 1.75659 21.4172 2.20171 22.2957L3.98579 21.3918ZM3.16881 18.9013C2.97537 17.9148 2.875 16.7829 2.875 15.5H0.875C0.875 16.8837 0.982963 18.1477 1.20619 19.2862L3.16881 18.9013ZM2.875 15.5V11.6719H0.875V15.5H2.875ZM2.875 11.6719C2.875 10.0526 3.0263 8.69233 3.31241 7.5765L1.37509 7.07975C1.0362 8.40142 0.875 9.93693 0.875 11.6719H2.875ZM3.3104 7.58424C3.60912 6.45681 4.02092 5.56941 4.52249 4.89185L2.91501 3.7019C2.22908 4.6285 1.72422 5.76194 1.3771 7.07201L3.3104 7.58424ZM4.5175 4.89853C5.02608 4.22335 5.62875 3.74116 6.32903 3.42898L5.51472 1.60227C4.48584 2.06092 3.61975 2.76623 2.92 3.69522L4.5175 4.89853ZM6.33815 3.42486C7.05387 3.09719 7.88778 2.92188 8.85938 2.92188V0.921875C7.64347 0.921875 6.51905 1.1424 5.5056 1.60639L6.33815 3.42486ZM8.85938 2.92188C9.6345 2.92188 10.3211 3.03704 10.9293 3.25424L11.602 1.37076C10.7518 1.06712 9.83425 0.921875 8.85938 0.921875V2.92188ZM10.9454 3.25984C11.5629 3.46856 12.0958 3.77727 12.5544 4.18491L13.8831 2.69009C13.2167 2.09773 12.4475 1.65644 11.5859 1.36516L10.9454 3.25984ZM12.5612 4.19092C13.0212 4.59235 13.424 5.12188 13.7594 5.8018L15.5531 4.91695C15.1176 4.03437 14.5622 3.28265 13.8763 2.68408L12.5612 4.19092ZM13.7667 5.81618C14.1096 6.48397 14.38 7.29988 14.5641 8.27863L16.5296 7.90887C16.3179 6.78345 15.9946 5.77645 15.5458 4.90257L13.7667 5.81618ZM14.5659 8.288C14.759 9.2629 14.8594 10.3887 14.8594 11.6719H16.8594C16.8594 10.2883 16.7514 9.02877 16.5278 7.8995L14.5659 8.288ZM15 15.7188V11.4375H13V15.7188H15ZM15 11.4375C15 10.3603 14.9239 9.36469 14.7666 8.45469L12.7959 8.79531C12.9302 9.57281 13 10.4522 13 11.4375H15ZM14.7686 8.46653C14.6232 7.56059 14.401 6.73961 14.0918 6.01415L12.252 6.79835C12.4844 7.34373 12.6685 8.00191 12.7939 8.78347L14.7686 8.46653ZM14.0918 6.01415C13.78 5.2826 13.372 4.64262 12.8564 4.11418L11.4248 5.51082C11.7426 5.83655 12.0221 6.25907 12.252 6.79835L14.0918 6.01415ZM12.8652 4.12329C12.3551 3.58704 11.7489 3.18518 11.0562 2.92377L10.3501 4.79498C10.7615 4.95024 11.1137 5.18379 11.4161 5.50171L12.8652 4.12329ZM11.0776 2.93213C10.3979 2.65762 9.6529 2.53125 8.85938 2.53125V4.53125C9.44085 4.53125 9.92507 4.62363 10.3287 4.78662L11.0776 2.93213ZM8.85938 2.53125C7.87704 2.53125 6.96641 2.73233 6.15515 3.16413L7.09485 4.92962C7.57526 4.67392 8.15421 4.53125 8.85938 4.53125V2.53125ZM6.16045 3.16133C5.35578 3.58345 4.70002 4.21009 4.18922 5.00745L5.87328 6.0863C6.21664 5.55033 6.62339 5.17697 7.08955 4.93242L6.16045 3.16133ZM4.19311 5.00142C3.68439 5.78311 3.3235 6.72572 3.08607 7.79978L5.03893 8.23147C5.239 7.32636 5.52394 6.62314 5.86939 6.09233L4.19311 5.00142ZM3.08395 7.80961C2.85807 8.88256 2.75 10.0946 2.75 11.4375H4.75C4.75 10.197 4.85027 9.12786 5.04105 8.22164L3.08395 7.80961ZM2.75 11.4375V15.7188H4.75V11.4375H2.75ZM2.75 15.7188C2.75 16.7828 2.8205 17.769 2.96576 18.6741L4.94049 18.3572C4.81492 17.5747 4.75 16.6964 4.75 15.7188H2.75ZM2.96607 18.676C3.1123 19.5759 3.34097 20.3981 3.66129 21.1336L5.49496 20.3351C5.25278 19.779 5.06478 19.122 4.94018 18.3552L2.96607 18.676ZM3.66129 21.1336C3.979 21.8632 4.37832 22.5062 4.86866 23.0468L6.35009 21.7032C6.02793 21.348 5.73975 20.8972 5.49496 20.3351L3.66129 21.1336ZM4.88524 23.0647C5.39374 23.5986 5.98593 24.012 6.65724 24.296L7.43651 22.454C7.02449 22.2797 6.65834 22.0264 6.33351 21.6853L4.88524 23.0647ZM6.67851 24.3047C7.36311 24.5759 8.10494 24.7031 8.89062 24.7031V22.7031C8.32214 22.7031 7.83481 22.6116 7.41524 22.4453L6.67851 24.3047ZM8.89062 24.7031C9.88878 24.7031 10.8087 24.504 11.6164 24.067L10.6648 22.308C10.2017 22.5585 9.62163 22.7031 8.89062 22.7031V24.7031ZM11.6275 24.061C12.4234 23.6173 13.073 22.9783 13.5802 22.1741L11.8886 21.1071C11.5416 21.6572 11.1287 22.0493 10.6538 22.314L11.6275 24.061ZM13.5838 22.1683C14.0855 21.3607 14.4395 20.4072 14.666 19.331L12.709 18.919C12.5189 19.8219 12.2374 20.5455 11.8849 21.1129L13.5838 22.1683ZM14.6665 19.329C14.8917 18.248 15 17.0423 15 15.7188H13C13 16.9369 12.9 18.002 12.7085 18.921L14.6665 19.329ZM34.1406 23.3906H35.1406V22.3906H34.1406V23.3906ZM34.1406 25V26H35.1406V25H34.1406ZM19.9062 25H18.9062V26H19.9062V25ZM19.9062 23.5469L19.1562 22.8855L18.9062 23.169V23.5469H19.9062ZM27.3594 15.0938L28.1095 15.7551L28.1096 15.7549L27.3594 15.0938ZM29.5781 12.3281L30.3984 12.9001L30.4019 12.8951L29.5781 12.3281ZM30.7656 10.1406L29.8293 9.78949L29.8263 9.79768L30.7656 10.1406ZM30.5938 5.78125L29.7019 6.23381L29.7074 6.24427L30.5938 5.78125ZM21.875 6.09375L20.9876 5.63275L20.9853 5.6372L21.875 6.09375ZM21.2656 8.79688V9.79688H22.2656V8.79688H21.2656ZM19.4062 8.79688H18.4062V9.79688H19.4062V8.79688ZM20.2344 5.35938L19.3544 4.88421L19.3508 4.89108L20.2344 5.35938ZM22.6406 2.875L23.1488 3.73629L23.1551 3.73249L22.6406 2.875ZM29.9219 2.67188L29.4784 3.56821L29.4861 3.57191L29.9219 2.67188ZM32.2031 4.75L31.3404 5.25574L31.3448 5.26304L32.2031 4.75ZM32.6406 10.1094L31.6991 9.77212L31.6948 9.78469L32.6406 10.1094ZM31.6406 12.2031L30.7877 11.6812L30.7854 11.6848L31.6406 12.2031ZM30.2031 14.25L29.4222 13.6253L29.4164 13.6327L30.2031 14.25ZM28.5312 16.25L27.7838 15.5856L27.7837 15.5858L28.5312 16.25ZM22.1875 23.3906L21.4399 22.7265L19.9615 24.3906H22.1875V23.3906ZM33.1406 23.3906V25H35.1406V23.3906H33.1406ZM34.1406 24H19.9062V26H34.1406V24ZM20.9062 25V23.5469H18.9062V25H20.9062ZM20.6563 24.2082L28.1095 15.7551L26.6093 14.4324L19.1562 22.8855L20.6563 24.2082ZM28.1096 15.7549C29.0516 14.6859 29.8174 13.7332 30.3984 12.9001L28.7579 11.7561C28.2347 12.5064 27.5213 13.3974 26.6091 14.4326L28.1096 15.7549ZM30.4019 12.8951C30.9845 12.0486 31.4276 11.2433 31.705 10.4836L29.8263 9.79768C29.6245 10.3505 29.2759 11.0035 28.7544 11.7611L30.4019 12.8951ZM31.702 10.4917C31.9883 9.72826 32.1406 8.9635 32.1406 8.20312H30.1406C30.1406 8.69275 30.043 9.21965 29.8293 9.7895L31.702 10.4917ZM32.1406 8.20312C32.1406 7.15174 31.9307 6.18086 31.4801 5.31823L29.7074 6.24427C29.9859 6.77747 30.1406 7.42118 30.1406 8.20312H32.1406ZM31.4855 5.32872C31.038 4.44688 30.3628 3.75665 29.4878 3.26768L28.5122 5.01357C29.0539 5.31627 29.4412 5.71979 29.702 6.23378L31.4855 5.32872ZM29.4878 3.26768C28.5939 2.76815 27.5401 2.54688 26.375 2.54688V4.54688C27.2932 4.54688 27.9894 4.72144 28.5122 5.01357L29.4878 3.26768ZM26.375 2.54688C25.1869 2.54688 24.1013 2.80359 23.1538 3.35413L24.1587 5.08337C24.7529 4.73808 25.4798 4.54688 26.375 4.54688V2.54688ZM23.1538 3.35413C22.2166 3.89873 21.4904 4.66481 20.9876 5.63276L22.7624 6.55474C23.0929 5.91853 23.5542 5.4346 24.1587 5.08337L23.1538 3.35413ZM20.9853 5.6372C20.4973 6.58825 20.2656 7.64937 20.2656 8.79688H22.2656C22.2656 7.92354 22.4402 7.18258 22.7647 6.5503L20.9853 5.6372ZM21.2656 7.79688H19.4062V9.79688H21.2656V7.79688ZM20.4062 8.79688C20.4062 7.7 20.6469 6.71638 21.1179 5.82767L19.3508 4.89108C18.7177 6.0857 18.4062 7.39375 18.4062 8.79688H20.4062ZM21.1143 5.83452C21.5884 4.9566 22.2603 4.26048 23.1488 3.73627L22.1325 2.01373C20.9376 2.71869 20.0054 3.67882 19.3545 4.88423L21.1143 5.83452ZM23.1551 3.73249C24.0139 3.21724 25.0733 2.9375 26.375 2.9375V0.9375C24.7809 0.9375 23.3507 1.28276 22.1261 2.01751L23.1551 3.73249ZM26.375 2.9375C27.6331 2.9375 28.6564 3.16147 29.4784 3.56818L30.3653 1.77557C29.2082 1.20311 27.8669 0.9375 26.375 0.9375V2.9375ZM29.4861 3.57191C30.3062 3.96905 30.9141 4.5285 31.3404 5.25572L33.0658 4.24428C32.4296 3.159 31.5167 2.33303 30.3577 1.77184L29.4861 3.57191ZM31.3448 5.26304C31.7758 5.98413 32.0156 6.89207 32.0156 8.03125H34.0156C34.0156 6.60793 33.7138 5.32837 33.0615 4.23696L31.3448 5.26304ZM32.0156 8.03125C32.0156 8.59512 31.9135 9.17394 31.6992 9.77215L33.5821 10.4466C33.8678 9.64897 34.0156 8.84238 34.0156 8.03125H32.0156ZM31.6948 9.78469C31.4813 10.4067 31.1808 11.0388 30.7877 11.6812L32.4936 12.7251C32.9547 11.9716 33.3208 11.2079 33.5864 10.4341L31.6948 9.78469ZM30.7854 11.6848C30.3929 12.3325 29.939 12.9794 29.4223 13.6253L30.984 14.8747C31.5506 14.1664 32.055 13.4487 32.4958 12.7214L30.7854 11.6848ZM29.4164 13.6327C28.898 14.2934 28.3539 14.9444 27.7838 15.5856L29.2787 16.9144C29.8753 16.2431 30.4457 15.5608 30.9899 14.8673L29.4164 13.6327ZM27.7837 15.5858L21.4399 22.7265L22.9351 24.0548L29.2788 16.9142L27.7837 15.5858ZM22.1875 24.3906H34.1406V22.3906H22.1875V24.3906Z" fill="#212025"/>
</svg>
