<svg width="36" height="19" viewBox="0 0 36 19" fill="none" xmlns="http://www.w3.org/2000/svg">
<rect width="36" height="19" fill="#F5F5F5"/>
<path d="M15.3906 19.8594L16.3598 20.1058L16.3603 20.1038L15.3906 19.8594ZM14.0156 22.9219L13.2132 22.3252L13.2119 22.3269L14.0156 22.9219ZM11.8281 24.7188L11.4118 23.8095L11.4077 23.8114L11.8281 24.7188ZM4.53125 23.7969L3.85184 24.5306L3.85888 24.5372L3.86604 24.5435L4.53125 23.7969ZM2.1875 19.0938L1.20618 19.2862L1.20655 19.288L2.1875 19.0938ZM2.34375 7.32812L1.37707 7.072L1.37509 7.07975L2.34375 7.32812ZM3.71875 4.29688L2.91997 3.6952L2.91501 3.7019L3.71875 4.29688ZM5.92188 2.51562L6.32905 3.42903L6.33815 3.42486L5.92188 2.51562ZM11.2656 2.3125L10.9293 3.25424L10.9373 3.25711L10.9454 3.25984L11.2656 2.3125ZM13.2188 3.4375L12.5544 4.18494L12.5612 4.19092L13.2188 3.4375ZM14.6562 5.35938L13.7594 5.8018L13.763 5.80902L13.7667 5.81618L14.6562 5.35938ZM15.5469 8.09375L14.5641 8.27863L14.5659 8.288L15.5469 8.09375ZM13.7812 8.625L12.7938 8.78348L12.7959 8.79531L13.7812 8.625ZM12.1406 4.8125L11.416 5.50177L11.4248 5.51082L12.1406 4.8125ZM10.7031 3.85938L10.3287 4.78662L10.3393 4.79092L10.3501 4.79498L10.7031 3.85938ZM6.625 4.04688L7.08956 4.93244L7.09485 4.92962L6.625 4.04688ZM5.03125 5.54688L5.86941 6.09235L5.87328 6.0863L5.03125 5.54688ZM4.0625 8.01562L3.08602 7.79977L3.08395 7.80961L4.0625 8.01562ZM3.95312 18.5156L2.96576 18.6741L2.96607 18.676L3.95312 18.5156ZM5.60938 22.375L4.86866 23.0468L4.87684 23.0558L4.88524 23.0647L5.60938 22.375ZM7.04688 23.375L6.65724 24.296L6.66782 24.3004L6.67851 24.3047L7.04688 23.375ZM11.1406 23.1875L11.6165 24.0671L11.6275 24.061L11.1406 23.1875ZM12.7344 21.6406L13.5802 22.1741L13.5838 22.1683L12.7344 21.6406ZM13.6875 19.125L14.6661 19.331L14.6665 19.329L13.6875 19.125ZM14.8594 11.6719V15.5H16.8594V11.6719H14.8594ZM14.8594 15.5C14.8594 17.1077 14.7083 18.4752 14.421 19.6149L16.3603 20.1038C16.698 18.7644 16.8594 17.2257 16.8594 15.5H14.8594ZM14.4215 19.613C14.1333 20.7464 13.7225 21.6403 13.2132 22.3252L14.8181 23.5186C15.5171 22.5785 16.023 21.4306 16.3598 20.1058L14.4215 19.613ZM13.2119 22.3269C12.7135 23.0001 12.1151 23.4875 11.4118 23.8095L12.2444 25.628C13.2703 25.1583 14.1302 24.4478 14.8194 23.5169L13.2119 22.3269ZM11.4077 23.8114C10.7061 24.1365 9.87446 24.3125 8.89062 24.3125V26.3125C10.1151 26.3125 11.2418 26.0926 12.2486 25.6261L11.4077 23.8114ZM8.89062 24.3125C8.11127 24.3125 7.42042 24.2013 6.8087 23.9916L6.16005 25.8834C7.00666 26.1737 7.91998 26.3125 8.89062 26.3125V24.3125ZM6.8087 23.9916C6.20468 23.7845 5.66965 23.4718 5.19646 23.0502L3.86604 24.5435C4.53868 25.1428 5.30574 25.5905 6.16005 25.8834L6.8087 23.9916ZM5.21066 23.0631C4.74664 22.6335 4.33556 22.0821 3.98579 21.3918L2.20171 22.2957C2.64361 23.1679 3.19086 23.9186 3.85184 24.5306L5.21066 23.0631ZM3.98579 21.3918C3.63924 20.7078 3.36287 19.8813 3.16845 18.8995L1.20655 19.288C1.4288 20.4104 1.75659 21.4172 2.20171 22.2957L3.98579 21.3918ZM3.16881 18.9013C2.97537 17.9148 2.875 16.7829 2.875 15.5H0.875C0.875 16.8837 0.982963 18.1477 1.20619 19.2862L3.16881 18.9013ZM2.875 15.5V11.6719H0.875V15.5H2.875ZM2.875 11.6719C2.875 10.0526 3.0263 8.69233 3.31241 7.5765L1.37509 7.07975C1.0362 8.40142 0.875 9.93693 0.875 11.6719H2.875ZM3.3104 7.58424C3.60912 6.45681 4.02092 5.56941 4.52249 4.89185L2.91501 3.7019C2.22908 4.6285 1.72422 5.76194 1.3771 7.07201L3.3104 7.58424ZM4.5175 4.89853C5.02608 4.22335 5.62875 3.74116 6.32903 3.42898L5.51472 1.60227C4.48584 2.06092 3.61975 2.76623 2.92 3.69522L4.5175 4.89853ZM6.33815 3.42486C7.05387 3.09719 7.88778 2.92188 8.85938 2.92188V0.921875C7.64347 0.921875 6.51905 1.1424 5.5056 1.60639L6.33815 3.42486ZM8.85938 2.92188C9.6345 2.92188 10.3211 3.03704 10.9293 3.25424L11.602 1.37076C10.7518 1.06712 9.83425 0.921875 8.85938 0.921875V2.92188ZM10.9454 3.25984C11.5629 3.46856 12.0958 3.77727 12.5544 4.18491L13.8831 2.69009C13.2167 2.09773 12.4475 1.65644 11.5859 1.36516L10.9454 3.25984ZM12.5612 4.19092C13.0212 4.59235 13.424 5.12188 13.7594 5.8018L15.5531 4.91695C15.1176 4.03437 14.5622 3.28265 13.8763 2.68408L12.5612 4.19092ZM13.7667 5.81618C14.1096 6.48397 14.38 7.29988 14.5641 8.27863L16.5296 7.90887C16.3179 6.78345 15.9946 5.77645 15.5458 4.90257L13.7667 5.81618ZM14.5659 8.288C14.759 9.2629 14.8594 10.3887 14.8594 11.6719H16.8594C16.8594 10.2883 16.7514 9.02877 16.5278 7.8995L14.5659 8.288ZM15 15.7188V11.4375H13V15.7188H15ZM15 11.4375C15 10.3603 14.9239 9.36469 14.7666 8.45469L12.7959 8.79531C12.9302 9.57281 13 10.4522 13 11.4375H15ZM14.7686 8.46653C14.6232 7.56059 14.401 6.73961 14.0918 6.01415L12.252 6.79835C12.4844 7.34373 12.6685 8.00191 12.7939 8.78347L14.7686 8.46653ZM14.0918 6.01415C13.78 5.2826 13.372 4.64262 12.8564 4.11418L11.4248 5.51082C11.7426 5.83655 12.0221 6.25907 12.252 6.79835L14.0918 6.01415ZM12.8652 4.12329C12.3551 3.58704 11.7489 3.18518 11.0562 2.92377L10.3501 4.79498C10.7615 4.95024 11.1137 5.18379 11.4161 5.50171L12.8652 4.12329ZM11.0776 2.93213C10.3979 2.65762 9.6529 2.53125 8.85938 2.53125V4.53125C9.44085 4.53125 9.92507 4.62363 10.3287 4.78662L11.0776 2.93213ZM8.85938 2.53125C7.87704 2.53125 6.96641 2.73233 6.15515 3.16413L7.09485 4.92962C7.57526 4.67392 8.15421 4.53125 8.85938 4.53125V2.53125ZM6.16045 3.16133C5.35578 3.58345 4.70002 4.21009 4.18922 5.00745L5.87328 6.0863C6.21664 5.55033 6.62339 5.17697 7.08955 4.93242L6.16045 3.16133ZM4.19311 5.00142C3.68439 5.78311 3.3235 6.72572 3.08607 7.79978L5.03893 8.23147C5.239 7.32636 5.52394 6.62314 5.86939 6.09233L4.19311 5.00142ZM3.08395 7.80961C2.85807 8.88256 2.75 10.0946 2.75 11.4375H4.75C4.75 10.197 4.85027 9.12786 5.04105 8.22164L3.08395 7.80961ZM2.75 11.4375V15.7188H4.75V11.4375H2.75ZM2.75 15.7188C2.75 16.7828 2.8205 17.769 2.96576 18.6741L4.94049 18.3572C4.81492 17.5747 4.75 16.6964 4.75 15.7188H2.75ZM2.96607 18.676C3.1123 19.5759 3.34097 20.3981 3.66129 21.1336L5.49496 20.3351C5.25278 19.779 5.06478 19.122 4.94018 18.3552L2.96607 18.676ZM3.66129 21.1336C3.979 21.8632 4.37832 22.5062 4.86866 23.0468L6.35009 21.7032C6.02793 21.348 5.73975 20.8972 5.49496 20.3351L3.66129 21.1336ZM4.88524 23.0647C5.39374 23.5986 5.98593 24.012 6.65724 24.296L7.43651 22.454C7.02449 22.2797 6.65834 22.0264 6.33351 21.6853L4.88524 23.0647ZM6.67851 24.3047C7.36311 24.5759 8.10494 24.7031 8.89062 24.7031V22.7031C8.32214 22.7031 7.83481 22.6116 7.41524 22.4453L6.67851 24.3047ZM8.89062 24.7031C9.88878 24.7031 10.8087 24.504 11.6164 24.067L10.6648 22.308C10.2017 22.5585 9.62163 22.7031 8.89062 22.7031V24.7031ZM11.6275 24.061C12.4234 23.6173 13.073 22.9783 13.5802 22.1741L11.8886 21.1071C11.5416 21.6572 11.1287 22.0493 10.6538 22.314L11.6275 24.061ZM13.5838 22.1683C14.0855 21.3607 14.4395 20.4072 14.666 19.331L12.709 18.919C12.5189 19.8219 12.2374 20.5455 11.8849 21.1129L13.5838 22.1683ZM14.6665 19.329C14.8917 18.248 15 17.0423 15 15.7188H13C13 16.9369 12.9 18.002 12.7085 18.921L14.6665 19.329ZM24.0625 12.5938V11.5938H23.0625V12.5938H24.0625ZM28.8906 12L29.3426 12.892L29.3472 12.8897L28.8906 12ZM30.6719 10.3906L29.8179 9.87022L29.812 9.88009L30.6719 10.3906ZM30.7656 5.76562L29.8685 6.20748L29.8712 6.21284L30.7656 5.76562ZM29.1875 4.14062L28.6942 5.01046L28.7018 5.01481L28.7096 5.01901L29.1875 4.14062ZM21.5 8.21875V9.21875H22.5V8.21875H21.5ZM19.6406 8.21875H18.6406V9.21875H19.6406V8.21875ZM20.5312 4.95312L21.3761 5.48818L21.3787 5.48396L20.5312 4.95312ZM30 2.67188L29.5566 3.56819L29.5603 3.57001L30 2.67188ZM32.3125 4.8125L31.4466 5.31279L31.4508 5.31994L32.3125 4.8125ZM32.6875 10.2656L31.7766 9.85286L31.7713 9.86481L32.6875 10.2656ZM31.375 12.0781L32.0484 12.8175L32.0555 12.8109L31.375 12.0781ZM24.0625 13.8438H23.0625V14.8438H24.0625V13.8438ZM24.0625 14.2031H23.0625V15.2031H24.0625V14.2031ZM24.0625 12.9688V11.9688H23.0625V12.9688H24.0625ZM29.5312 13.4219L29.2214 14.3727L29.2311 14.3758L29.5312 13.4219ZM31.8125 14.6719L31.1385 15.4106L31.1453 15.4168L31.1522 15.4228L31.8125 14.6719ZM33.1406 16.5312L32.2112 16.9003L33.1406 16.5312ZM33.0469 21.5781L32.1277 21.1842L33.0469 21.5781ZM31.5781 23.625L32.2402 24.3745L32.241 24.3738L31.5781 23.625ZM29.3594 24.8906L29.6756 25.8393L29.6825 25.837L29.3594 24.8906ZM23.8906 24.9062L23.5917 25.8605L23.5949 25.8615L23.8906 24.9062ZM21.5469 23.7031L20.928 24.4886L20.9346 24.4938L20.9412 24.4988L21.5469 23.7031ZM19.9062 21.6719L19.0096 22.1145L19.0118 22.1191L19.9062 21.6719ZM19.2969 18.8281V17.8281H18.2969V18.8281H19.2969ZM21.1562 18.8281H22.1562V17.8281H21.1562V18.8281ZM21.8438 21.375L20.9937 21.9018L20.9971 21.9072L21.8438 21.375ZM23.75 23.0938L23.2937 23.9836L23.3005 23.9871L23.3073 23.9904L23.75 23.0938ZM29.3281 23.1562L29.7605 24.058L29.7656 24.0555L29.3281 23.1562ZM30.9688 16.2031L30.1483 16.7749L30.1542 16.7832L30.9688 16.2031ZM28.9531 14.6875L28.5995 15.6229L28.6032 15.6243L28.9531 14.6875ZM24.0625 13.5938H25.9688V11.5938H24.0625V13.5938ZM25.9688 13.5938C27.2425 13.5938 28.3826 13.3784 29.3426 12.892L28.4387 11.108C27.8361 11.4133 27.0283 11.5938 25.9688 11.5938V13.5938ZM29.3472 12.8897C30.281 12.4105 31.0263 11.7525 31.5317 10.9012L29.812 9.88009C29.5258 10.3621 29.0836 10.777 28.4341 11.1103L29.3472 12.8897ZM31.5258 10.911C32.0316 10.081 32.2812 9.16011 32.2812 8.17188H30.2812C30.2812 8.80864 30.1247 9.36691 29.8179 9.87025L31.5258 10.911ZM32.2812 8.17188C32.2812 7.12961 32.0854 6.16905 31.6601 5.31841L29.8712 6.21284C30.1334 6.7372 30.2812 7.38081 30.2812 8.17188H32.2812ZM31.6627 5.32378C31.2242 4.43346 30.5482 3.74254 29.6654 3.26224L28.7096 5.01901C29.2435 5.30954 29.6195 5.70195 29.8685 6.20747L31.6627 5.32378ZM29.6808 3.27079C28.7876 2.76419 27.7065 2.54688 26.5 2.54688V4.54688C27.481 4.54688 28.1915 4.72539 28.6942 5.01046L29.6808 3.27079ZM26.5 2.54688C25.4087 2.54688 24.3978 2.7612 23.4903 3.21495L24.3847 5.0038C24.9772 4.70755 25.6746 4.54688 26.5 4.54688V2.54688ZM23.4903 3.21495C22.5792 3.67048 21.8458 4.33126 21.309 5.18761L23.0035 6.24989C23.3417 5.71041 23.7958 5.29827 24.3847 5.0038L23.4903 3.21495ZM21.309 5.18761C20.7552 6.07095 20.5 7.0957 20.5 8.21875H22.5C22.5 7.4043 22.6823 6.76238 23.0035 6.24989L21.309 5.18761ZM21.5 7.21875H19.6406V9.21875H21.5V7.21875ZM20.6406 8.21875C20.6406 7.14574 20.8953 6.24734 21.3761 5.48818L19.6864 4.41807C18.9797 5.53391 18.6406 6.81259 18.6406 8.21875H20.6406ZM21.3787 5.48396C21.872 4.69652 22.5506 4.07815 23.4387 3.62521L22.53 1.84354C21.3348 2.4531 20.378 3.31389 19.6838 4.42229L21.3787 5.48396ZM23.4387 3.62521C24.3243 3.17354 25.3377 2.9375 26.5 2.9375V0.9375C25.0582 0.9375 23.7278 1.23271 22.53 1.84354L23.4387 3.62521ZM26.5 2.9375C27.7228 2.9375 28.7316 3.16003 29.5566 3.56818L30.4434 1.77557C29.2893 1.20456 27.9647 0.9375 26.5 0.9375V2.9375ZM29.5603 3.57001C30.3872 3.97488 31.0073 4.55238 31.4466 5.31278L33.1784 4.31222C32.5344 3.19762 31.6128 2.34804 30.4397 1.77374L29.5603 3.57001ZM31.4508 5.31994C31.8933 6.07133 32.1406 7.0274 32.1406 8.23438H34.1406C34.1406 6.75385 33.8359 5.42867 33.1742 4.30506L31.4508 5.31994ZM32.1406 8.23438C32.1406 8.77045 32.0238 9.30736 31.7766 9.85289L33.5984 10.6784C33.9553 9.89055 34.1406 9.0733 34.1406 8.23438H32.1406ZM31.7713 9.86481C31.5396 10.3944 31.1869 10.8882 30.6945 11.3453L32.0555 12.8109C32.7298 12.1848 33.252 11.4701 33.6037 10.6664L31.7713 9.86481ZM30.7017 11.3388C30.2271 11.7709 29.6184 12.1368 28.8532 12.4226L29.553 14.2962C30.5171 13.9361 31.3562 13.4478 32.0483 12.8175L30.7017 11.3388ZM28.8532 12.4226C28.1239 12.695 27.2417 12.8438 26.1875 12.8438V14.8438C27.425 14.8438 28.5531 14.6696 29.553 14.2962L28.8532 12.4226ZM26.1875 12.8438H24.0625V14.8438H26.1875V12.8438ZM25.0625 13.8438V12.5938H23.0625V13.8438H25.0625ZM25.0625 14.2031V12.9688H23.0625V14.2031H25.0625ZM24.0625 13.9688H26.1875V11.9688H24.0625V13.9688ZM26.1875 13.9688C27.4174 13.9688 28.4216 14.112 29.2214 14.3727L29.8411 12.4711C28.7868 12.1275 27.5618 11.9688 26.1875 11.9688V13.9688ZM29.2311 14.3758C30.048 14.6328 30.6724 14.9854 31.1385 15.4106L32.4865 13.9331C31.7651 13.275 30.8687 12.7943 29.8314 12.468L29.2311 14.3758ZM31.1522 15.4228C31.6445 15.8558 31.9915 16.3469 32.2112 16.9003L34.07 16.1622C33.7273 15.2989 33.1888 14.5505 32.4728 13.9209L31.1522 15.4228ZM32.2112 16.9003C32.4428 17.4836 32.5625 18.1179 32.5625 18.8125H34.5625C34.5625 17.8821 34.4009 16.9956 34.07 16.1622L32.2112 16.9003ZM32.5625 18.8125C32.5625 19.7445 32.4088 20.5283 32.1277 21.1842L33.966 21.972C34.3724 21.0238 34.5625 19.9638 34.5625 18.8125H32.5625ZM32.1277 21.1842C31.8405 21.8545 31.4369 22.4145 30.9153 22.8762L32.241 24.3738C32.9902 23.7105 33.5658 22.9059 33.966 21.972L32.1277 21.1842ZM30.9161 22.8755C30.3979 23.3333 29.7759 23.6917 29.0362 23.9443L29.6825 25.837C30.6512 25.5062 31.5084 25.0209 32.2402 24.3745L30.9161 22.8755ZM29.0431 23.9419C28.3142 24.1849 27.4955 24.3125 26.5781 24.3125V26.3125C27.6816 26.3125 28.7171 26.1588 29.6756 25.8393L29.0431 23.9419ZM26.5781 24.3125C25.7616 24.3125 24.9655 24.1921 24.1863 23.951L23.5949 25.8615C24.5658 26.162 25.5613 26.3125 26.5781 26.3125V24.3125ZM24.1896 23.952C23.4319 23.7147 22.7552 23.3661 22.1526 22.9074L20.9412 24.4988C21.7344 25.1026 22.6201 25.5562 23.5917 25.8605L24.1896 23.952ZM22.1657 22.9176C21.5983 22.4706 21.1437 21.9106 20.8007 21.2247L19.0118 22.1191C19.4813 23.0581 20.1205 23.8524 20.928 24.4886L22.1657 22.9176ZM20.8029 21.2292C20.4752 20.5654 20.2969 19.7734 20.2969 18.8281H18.2969C18.2969 20.0287 18.5248 21.1325 19.0096 22.1145L20.8029 21.2292ZM19.2969 19.8281H21.1562V17.8281H19.2969V19.8281ZM20.1562 18.8281C20.1562 19.9531 20.4276 20.9882 20.9937 21.9018L22.6938 20.8482C22.3433 20.2827 22.1562 19.6198 22.1562 18.8281H20.1562ZM20.9971 21.9072C21.5569 22.7977 22.3313 23.49 23.2937 23.9836L24.2063 22.2039C23.5437 21.8641 23.0473 21.4106 22.6904 20.8428L20.9971 21.9072ZM23.3073 23.9904C24.2881 24.4746 25.3863 24.7031 26.5781 24.7031V22.7031C25.6449 22.7031 24.8577 22.5254 24.1927 22.1971L23.3073 23.9904ZM26.5781 24.7031C27.7612 24.7031 28.8335 24.5024 29.7605 24.058L28.8958 22.2545C28.3019 22.5393 27.5409 22.7031 26.5781 22.7031V24.7031ZM29.7656 24.0555C30.7113 23.5954 31.4543 22.91 31.9643 22.0077L30.2232 21.0236C29.9207 21.5588 29.4866 21.9671 28.8907 22.257L29.7656 24.0555ZM31.9643 22.0077C32.4749 21.1044 32.7031 20.0447 32.7031 18.875H30.7031C30.7031 19.7886 30.5251 20.4893 30.2232 21.0236L31.9643 22.0077ZM32.7031 18.875C32.7031 17.6347 32.4248 16.5238 31.7833 15.6231L30.1542 16.7832C30.4919 17.2574 30.7031 17.9278 30.7031 18.875H32.7031ZM31.7891 15.6313C31.1821 14.7604 30.3377 14.1372 29.303 13.7507L28.6032 15.6243C29.2977 15.8837 29.797 16.2709 30.1484 16.7749L31.7891 15.6313ZM29.3067 13.7521C28.3158 13.3775 27.1967 13.2031 25.9688 13.2031V15.2031C27.0117 15.2031 27.8821 15.3517 28.5995 15.6229L29.3067 13.7521ZM25.9688 13.2031H24.0625V15.2031H25.9688V13.2031Z" fill="#212025"/>
</svg>
