<svg width="36" height="19" viewBox="0 0 36 19" fill="none" xmlns="http://www.w3.org/2000/svg">
<rect width="36" height="19" fill="#F5F5F5"/>
<path d="M15.3906 19.8594L16.3598 20.1058L16.3603 20.1038L15.3906 19.8594ZM14.0156 22.9219L13.2132 22.3252L13.2119 22.3269L14.0156 22.9219ZM11.8281 24.7188L11.4118 23.8095L11.4077 23.8114L11.8281 24.7188ZM4.53125 23.7969L3.85184 24.5306L3.85888 24.5372L3.86604 24.5435L4.53125 23.7969ZM2.1875 19.0938L1.20618 19.2862L1.20655 19.288L2.1875 19.0938ZM2.34375 7.32812L1.37707 7.072L1.37509 7.07975L2.34375 7.32812ZM3.71875 4.29688L2.91997 3.6952L2.91501 3.7019L3.71875 4.29688ZM5.92188 2.51562L6.32905 3.42903L6.33815 3.42486L5.92188 2.51562ZM11.2656 2.3125L10.9293 3.25424L10.9373 3.25711L10.9454 3.25984L11.2656 2.3125ZM13.2188 3.4375L12.5544 4.18494L12.5612 4.19092L13.2188 3.4375ZM14.6562 5.35938L13.7594 5.8018L13.763 5.80902L13.7667 5.81618L14.6562 5.35938ZM15.5469 8.09375L14.5641 8.27863L14.5659 8.288L15.5469 8.09375ZM13.7812 8.625L12.7938 8.78348L12.7959 8.79531L13.7812 8.625ZM12.1406 4.8125L11.416 5.50177L11.4248 5.51082L12.1406 4.8125ZM10.7031 3.85938L10.3287 4.78662L10.3393 4.79092L10.3501 4.79498L10.7031 3.85938ZM6.625 4.04688L7.08956 4.93244L7.09485 4.92962L6.625 4.04688ZM5.03125 5.54688L5.86941 6.09235L5.87328 6.0863L5.03125 5.54688ZM4.0625 8.01562L3.08602 7.79977L3.08395 7.80961L4.0625 8.01562ZM3.95312 18.5156L2.96576 18.6741L2.96607 18.676L3.95312 18.5156ZM5.60938 22.375L4.86866 23.0468L4.87684 23.0558L4.88524 23.0647L5.60938 22.375ZM7.04688 23.375L6.65724 24.296L6.66782 24.3004L6.67851 24.3047L7.04688 23.375ZM11.1406 23.1875L11.6165 24.0671L11.6275 24.061L11.1406 23.1875ZM12.7344 21.6406L13.5802 22.1741L13.5838 22.1683L12.7344 21.6406ZM13.6875 19.125L14.6661 19.331L14.6665 19.329L13.6875 19.125ZM14.8594 11.6719V15.5H16.8594V11.6719H14.8594ZM14.8594 15.5C14.8594 17.1077 14.7083 18.4752 14.421 19.6149L16.3603 20.1038C16.698 18.7644 16.8594 17.2257 16.8594 15.5H14.8594ZM14.4215 19.613C14.1333 20.7464 13.7225 21.6403 13.2132 22.3252L14.8181 23.5186C15.5171 22.5785 16.023 21.4306 16.3598 20.1058L14.4215 19.613ZM13.2119 22.3269C12.7135 23.0001 12.1151 23.4875 11.4118 23.8095L12.2444 25.628C13.2703 25.1583 14.1302 24.4478 14.8194 23.5169L13.2119 22.3269ZM11.4077 23.8114C10.7061 24.1365 9.87446 24.3125 8.89062 24.3125V26.3125C10.1151 26.3125 11.2418 26.0926 12.2486 25.6261L11.4077 23.8114ZM8.89062 24.3125C8.11127 24.3125 7.42042 24.2013 6.8087 23.9916L6.16005 25.8834C7.00666 26.1737 7.91998 26.3125 8.89062 26.3125V24.3125ZM6.8087 23.9916C6.20468 23.7845 5.66965 23.4718 5.19646 23.0502L3.86604 24.5435C4.53868 25.1428 5.30574 25.5905 6.16005 25.8834L6.8087 23.9916ZM5.21066 23.0631C4.74664 22.6335 4.33556 22.0821 3.98579 21.3918L2.20171 22.2957C2.64361 23.1679 3.19086 23.9186 3.85184 24.5306L5.21066 23.0631ZM3.98579 21.3918C3.63924 20.7078 3.36287 19.8813 3.16845 18.8995L1.20655 19.288C1.4288 20.4104 1.75659 21.4172 2.20171 22.2957L3.98579 21.3918ZM3.16881 18.9013C2.97537 17.9148 2.875 16.7829 2.875 15.5H0.875C0.875 16.8837 0.982963 18.1477 1.20619 19.2862L3.16881 18.9013ZM2.875 15.5V11.6719H0.875V15.5H2.875ZM2.875 11.6719C2.875 10.0526 3.0263 8.69233 3.31241 7.5765L1.37509 7.07975C1.0362 8.40142 0.875 9.93693 0.875 11.6719H2.875ZM3.3104 7.58424C3.60912 6.45681 4.02092 5.56941 4.52249 4.89185L2.91501 3.7019C2.22908 4.6285 1.72422 5.76194 1.3771 7.07201L3.3104 7.58424ZM4.5175 4.89853C5.02608 4.22335 5.62875 3.74116 6.32903 3.42898L5.51472 1.60227C4.48584 2.06092 3.61975 2.76623 2.92 3.69522L4.5175 4.89853ZM6.33815 3.42486C7.05387 3.09719 7.88778 2.92188 8.85938 2.92188V0.921875C7.64347 0.921875 6.51905 1.1424 5.5056 1.60639L6.33815 3.42486ZM8.85938 2.92188C9.6345 2.92188 10.3211 3.03704 10.9293 3.25424L11.602 1.37076C10.7518 1.06712 9.83425 0.921875 8.85938 0.921875V2.92188ZM10.9454 3.25984C11.5629 3.46856 12.0958 3.77727 12.5544 4.18491L13.8831 2.69009C13.2167 2.09773 12.4475 1.65644 11.5859 1.36516L10.9454 3.25984ZM12.5612 4.19092C13.0212 4.59235 13.424 5.12188 13.7594 5.8018L15.5531 4.91695C15.1176 4.03437 14.5622 3.28265 13.8763 2.68408L12.5612 4.19092ZM13.7667 5.81618C14.1096 6.48397 14.38 7.29988 14.5641 8.27863L16.5296 7.90887C16.3179 6.78345 15.9946 5.77645 15.5458 4.90257L13.7667 5.81618ZM14.5659 8.288C14.759 9.2629 14.8594 10.3887 14.8594 11.6719H16.8594C16.8594 10.2883 16.7514 9.02877 16.5278 7.8995L14.5659 8.288ZM15 15.7188V11.4375H13V15.7188H15ZM15 11.4375C15 10.3603 14.9239 9.36469 14.7666 8.45469L12.7959 8.79531C12.9302 9.57281 13 10.4522 13 11.4375H15ZM14.7686 8.46653C14.6232 7.56059 14.401 6.73961 14.0918 6.01415L12.252 6.79835C12.4844 7.34373 12.6685 8.00191 12.7939 8.78347L14.7686 8.46653ZM14.0918 6.01415C13.78 5.2826 13.372 4.64262 12.8564 4.11418L11.4248 5.51082C11.7426 5.83655 12.0221 6.25907 12.252 6.79835L14.0918 6.01415ZM12.8652 4.12329C12.3551 3.58704 11.7489 3.18518 11.0562 2.92377L10.3501 4.79498C10.7615 4.95024 11.1137 5.18379 11.4161 5.50171L12.8652 4.12329ZM11.0776 2.93213C10.3979 2.65762 9.6529 2.53125 8.85938 2.53125V4.53125C9.44085 4.53125 9.92507 4.62363 10.3287 4.78662L11.0776 2.93213ZM8.85938 2.53125C7.87704 2.53125 6.96641 2.73233 6.15515 3.16413L7.09485 4.92962C7.57526 4.67392 8.15421 4.53125 8.85938 4.53125V2.53125ZM6.16045 3.16133C5.35578 3.58345 4.70002 4.21009 4.18922 5.00745L5.87328 6.0863C6.21664 5.55033 6.62339 5.17697 7.08955 4.93242L6.16045 3.16133ZM4.19311 5.00142C3.68439 5.78311 3.3235 6.72572 3.08607 7.79978L5.03893 8.23147C5.239 7.32636 5.52394 6.62314 5.86939 6.09233L4.19311 5.00142ZM3.08395 7.80961C2.85807 8.88256 2.75 10.0946 2.75 11.4375H4.75C4.75 10.197 4.85027 9.12786 5.04105 8.22164L3.08395 7.80961ZM2.75 11.4375V15.7188H4.75V11.4375H2.75ZM2.75 15.7188C2.75 16.7828 2.8205 17.769 2.96576 18.6741L4.94049 18.3572C4.81492 17.5747 4.75 16.6964 4.75 15.7188H2.75ZM2.96607 18.676C3.1123 19.5759 3.34097 20.3981 3.66129 21.1336L5.49496 20.3351C5.25278 19.779 5.06478 19.122 4.94018 18.3552L2.96607 18.676ZM3.66129 21.1336C3.979 21.8632 4.37832 22.5062 4.86866 23.0468L6.35009 21.7032C6.02793 21.348 5.73975 20.8972 5.49496 20.3351L3.66129 21.1336ZM4.88524 23.0647C5.39374 23.5986 5.98593 24.012 6.65724 24.296L7.43651 22.454C7.02449 22.2797 6.65834 22.0264 6.33351 21.6853L4.88524 23.0647ZM6.67851 24.3047C7.36311 24.5759 8.10494 24.7031 8.89062 24.7031V22.7031C8.32214 22.7031 7.83481 22.6116 7.41524 22.4453L6.67851 24.3047ZM8.89062 24.7031C9.88878 24.7031 10.8087 24.504 11.6164 24.067L10.6648 22.308C10.2017 22.5585 9.62163 22.7031 8.89062 22.7031V24.7031ZM11.6275 24.061C12.4234 23.6173 13.073 22.9783 13.5802 22.1741L11.8886 21.1071C11.5416 21.6572 11.1287 22.0493 10.6538 22.314L11.6275 24.061ZM13.5838 22.1683C14.0855 21.3607 14.4395 20.4072 14.666 19.331L12.709 18.919C12.5189 19.8219 12.2374 20.5455 11.8849 21.1129L13.5838 22.1683ZM14.6665 19.329C14.8917 18.248 15 17.0423 15 15.7188H13C13 16.9369 12.9 18.002 12.7085 18.921L14.6665 19.329ZM34.9219 17.6562H35.9219V16.6562H34.9219V17.6562ZM34.9219 19.25V20.25H35.9219V19.25H34.9219ZM18.8125 19.25H17.8125V20.25H18.8125V19.25ZM18.8125 18.1719L17.9781 17.6208L17.8125 17.8715V18.1719H18.8125ZM29.3281 2.25V1.25H28.7902L28.4937 1.6989L29.3281 2.25ZM30.8906 2.25L31.7576 2.7484L32.619 1.25H30.8906V2.25ZM28.6719 6.10938L29.5079 6.65806L29.5241 6.63337L29.5388 6.60778L28.6719 6.10938ZM21.0938 17.6562L20.2577 17.1076L19.2413 18.6562H21.0938V17.6562ZM31.375 2.25H32.375V1.25H31.375V2.25ZM31.375 25V26H32.375V25H31.375ZM29.5156 25H28.5156V26H29.5156V25ZM29.5156 2.25V1.25H28.5156V2.25H29.5156ZM33.9219 17.6562V19.25H35.9219V17.6562H33.9219ZM34.9219 18.25H18.8125V20.25H34.9219V18.25ZM19.8125 19.25V18.1719H17.8125V19.25H19.8125ZM19.6469 18.723L30.1626 2.8011L28.4937 1.6989L17.9781 17.6208L19.6469 18.723ZM29.3281 3.25H30.8906V1.25H29.3281V3.25ZM30.0237 1.7516L27.8049 5.61097L29.5388 6.60778L31.7576 2.7484L30.0237 1.7516ZM27.8358 5.56069L20.2577 17.1076L21.9298 18.2049L29.5079 6.65806L27.8358 5.56069ZM21.0938 18.6562H34.9219V16.6562H21.0938V18.6562ZM30.375 2.25V25H32.375V2.25H30.375ZM31.375 24H29.5156V26H31.375V24ZM30.5156 25V2.25H28.5156V25H30.5156ZM29.5156 3.25H31.375V1.25H29.5156V3.25Z" fill="#212025"/>
</svg>
