<svg width="41" height="24" viewBox="0 0 41 24" fill="none" xmlns="http://www.w3.org/2000/svg">
<path d="M1.80344 1.58652C2.33274 1.07429 2.95359 0.824012 3.66599 0.835689C4.37701 0.847342 4.98863 1.11782 5.50086 1.64712L20.5091 17.1556L36.0705 2.09608C36.5645 1.618 37.1761 1.38493 37.9051 1.39688C38.6342 1.40883 39.2549 1.67946 39.7671 2.20876C40.2793 2.73806 40.5296 3.35891 40.5179 4.07131C40.5063 4.78233 40.2358 5.39395 39.7065 5.90618L21.87 23.1162C21.6582 23.3211 21.4302 23.4653 21.1857 23.5488C20.9413 23.6309 20.6802 23.6697 20.4024 23.6651C20.1247 23.6606 19.865 23.6132 19.6234 23.5232C19.3818 23.4317 19.1586 23.2801 18.9537 23.0684L1.69161 5.231C1.21353 4.73699 0.980319 4.13448 0.991973 3.42346C1.00365 2.71106 1.27414 2.09874 1.80344 1.58652Z" fill="#212025"/>
</svg>
