<svg width="48" height="70" viewBox="0 0 48 70" fill="none" xmlns="http://www.w3.org/2000/svg">
<path d="M4.51574 67.6843L5.16086 48.2752H10.3218L11.7964 59.5176C13.0252 59.8004 14.3769 60.1186 15.8514 60.4722C17.3874 60.8257 18.8927 61.1792 20.3673 61.5328C21.9033 61.8156 23.2549 62.0631 24.4223 62.2752C25.5897 62.4166 26.4191 62.4873 26.9106 62.4873C27.2178 62.4873 27.8015 62.2045 28.6617 61.6388C29.5833 61.0732 30.5663 60.4015 31.6108 59.6237C32.6553 58.7752 33.5769 57.9267 34.3756 57.0782C35.2357 56.2297 35.6965 55.5227 35.758 54.957C35.8809 54.1792 35.973 53.2954 36.0345 52.3055C36.0959 51.2449 36.1266 50.2196 36.1266 49.2297C36.1266 48.1691 36.0652 47.2499 35.9423 46.4722C35.8809 45.6944 35.758 45.1994 35.5737 44.9873C35.0821 44.2095 34.0684 43.2196 32.5324 42.0176C31.0578 40.8156 29.3375 39.5075 27.3714 38.0934C25.4668 36.6085 23.5314 35.1237 21.5653 33.6388C19.6607 32.154 17.9711 30.7398 16.4965 29.3964C15.0834 28.053 14.1311 26.8863 13.6396 25.8964C13.5167 25.5429 13.3631 24.8711 13.1788 23.8812C13.0559 22.8206 12.9637 21.6186 12.9023 20.2752C12.8409 18.861 12.7794 17.5176 12.718 16.2449C11.6121 17.2348 10.7519 18.1186 10.1375 18.8964C9.58454 19.6035 9.18518 20.3105 8.93942 21.0176C8.7551 21.7247 8.66294 22.5732 8.66294 23.5631C8.66294 24.6944 8.72438 25.6843 8.84726 26.5328C9.03158 27.3105 9.24662 28.053 9.49238 28.76C10.1068 30.1035 11.0591 31.3055 12.3493 32.3661C13.6396 33.4267 15.3599 34.8408 17.5103 36.6085C18.9234 37.7398 20.3673 38.9065 21.8418 40.1085C23.3164 41.2398 24.6988 42.3711 25.989 43.5025C27.3407 44.5631 28.4773 45.553 29.3989 46.4722C30.3205 47.3206 30.9042 48.0631 31.15 48.6994C31.4572 49.4065 31.5801 50.2196 31.5186 51.1388C31.5186 51.9873 31.4572 52.6944 31.3343 53.26C31.0885 53.8964 30.4434 54.6388 29.3989 55.4873C28.4159 56.2651 27.4943 56.9015 26.6341 57.3964C26.6956 56.5479 26.7263 55.6994 26.7263 54.8509C26.7877 54.0025 26.7877 53.2247 26.7263 52.5176C26.7263 51.8105 26.6034 51.2802 26.3577 50.9267C25.8661 50.1489 24.8524 49.1237 23.3164 47.8509C21.8418 46.5782 20.1215 45.1994 18.1554 43.7146C16.1893 42.2297 14.2233 40.7095 12.2572 39.154C10.3525 37.5984 8.69366 36.1136 7.28054 34.6994C5.92886 33.2146 5.13014 31.9419 4.88438 30.8812C4.70006 30.1035 4.54646 29.2196 4.42358 28.2297C4.3007 27.1691 4.23926 26.0732 4.23926 24.9419C4.23926 23.8105 4.26998 22.7499 4.33142 21.76C4.4543 20.6994 4.6079 19.8156 4.79222 19.1085C5.34518 17.9065 6.23606 16.5984 7.46486 15.1843C8.69366 13.6994 10.0761 12.2499 11.6121 10.8358C13.2095 9.35094 14.8069 8.04286 16.4044 6.91155C18.0633 5.70953 19.5993 4.75498 21.0124 4.04791C22.4869 3.34084 23.685 2.9873 24.6066 2.9873C24.9753 2.9873 25.6204 3.02266 26.542 3.09336C27.525 3.09336 28.6617 3.16407 29.9519 3.30549C31.3036 3.37619 32.686 3.48225 34.0991 3.62367C35.5737 3.76508 36.9868 3.94185 38.3385 4.15397C39.6901 4.36609 40.8882 4.57821 41.9327 4.79034L41.1954 23.0328H36.0345L34.6521 12.2146C33.7305 11.7196 32.6245 11.2954 31.3343 10.9419C30.1055 10.5176 28.8767 10.1994 27.6479 9.98731C26.4191 9.77518 25.3746 9.66912 24.5145 9.66912C24.0229 9.66912 23.5929 9.73983 23.2242 9.88124C22.8556 9.95195 22.5484 10.058 22.3026 10.1994C22.1183 10.3408 21.9647 10.553 21.8418 10.8358C21.5961 11.3307 21.4117 12.1085 21.2889 13.1691C21.2274 14.2297 21.1967 15.361 21.1967 16.5631C21.2581 17.6944 21.3503 18.755 21.4732 19.7449C21.5961 20.6641 21.7804 21.2651 22.0261 21.5479C22.7634 22.4671 23.7772 23.457 25.0674 24.5176C26.4191 25.5782 27.8937 26.6742 29.4911 27.8055C31.15 28.9368 32.8089 30.1388 34.4677 31.4115C36.1881 32.6136 37.7548 33.8863 39.1679 35.2297C40.6425 36.5025 41.8713 37.7752 42.8543 39.0479C43.0386 39.8964 43.1615 41.0984 43.2229 42.654C43.3458 44.2095 43.4073 45.8711 43.4073 47.6388C43.4073 49.3358 43.3458 50.9267 43.2229 52.4116C43.1615 53.8964 43.0386 54.9924 42.8543 55.6994C42.3013 57.0429 41.349 58.4924 39.9973 60.0479C38.6457 61.5328 37.1097 62.9469 35.3893 64.2903C33.7305 65.6338 32.133 66.7297 30.597 67.5782C29.061 68.356 27.8322 68.7449 26.9106 68.7449C25.7433 68.7449 24.1765 68.7095 22.2105 68.6388C20.3058 68.5681 18.2476 68.4621 16.0357 68.3206C13.8239 68.2499 11.7042 68.1439 9.6767 68.0025C7.64918 67.9318 5.92886 67.8257 4.51574 67.6843Z" fill="#9D84B8"/>
</svg>
