<svg width="16" height="16" viewBox="0 0 16 16" fill="none" xmlns="http://www.w3.org/2000/svg">
<path d="M2.36873 15.2727L2.55689 10.8364H4.06217L4.49225 13.4061C4.85065 13.4707 5.24489 13.5434 5.67497 13.6243C6.12297 13.7051 6.56201 13.7859 6.99209 13.8667C7.44009 13.9313 7.83433 13.9879 8.17481 14.0364C8.51529 14.0687 8.75721 14.0849 8.90057 14.0849C8.99017 14.0849 9.16041 14.0202 9.41129 13.8909C9.68009 13.7616 9.96681 13.6081 10.2714 13.4303C10.5761 13.2364 10.8449 13.0424 11.0778 12.8485C11.3287 12.6546 11.4631 12.4929 11.481 12.3637C11.5169 12.1859 11.5438 11.9839 11.5617 11.7576C11.5796 11.5152 11.5886 11.2808 11.5886 11.0546C11.5886 10.8121 11.5706 10.602 11.5348 10.4243C11.5169 10.2465 11.481 10.1333 11.4273 10.0849C11.2839 9.90709 10.9882 9.68082 10.5402 9.40608C10.1102 9.13133 9.60841 8.83234 9.03497 8.50911C8.47945 8.16971 7.91497 7.83032 7.34153 7.49092C6.78601 7.15153 6.29321 6.8283 5.86313 6.52123C5.45097 6.21416 5.17321 5.94749 5.02985 5.72123C4.99401 5.64042 4.94921 5.48688 4.89545 5.26062C4.85961 5.0182 4.83273 4.74345 4.81481 4.43638C4.79689 4.11315 4.77897 3.80608 4.76105 3.51517C4.43849 3.74143 4.18761 3.94345 4.00841 4.12123C3.84713 4.28284 3.73065 4.44446 3.65897 4.60608C3.60521 4.76769 3.57833 4.96163 3.57833 5.18789C3.57833 5.44648 3.59625 5.67274 3.63209 5.86668C3.68585 6.04446 3.74857 6.21416 3.82025 6.37577C3.99945 6.68284 4.27721 6.95759 4.65353 7.20002C5.02985 7.44244 5.53161 7.76567 6.15881 8.16971C6.57097 8.4283 6.99209 8.69496 7.42217 8.96971C7.85225 9.2283 8.25545 9.48688 8.63177 9.74547C9.02601 9.98789 9.35753 10.2142 9.62633 10.4243C9.89513 10.6182 10.0654 10.7879 10.137 10.9333C10.2266 11.095 10.2625 11.2808 10.2446 11.4909C10.2446 11.6849 10.2266 11.8465 10.1908 11.9758C10.1191 12.1212 9.93097 12.2909 9.62633 12.4849C9.33961 12.6626 9.07081 12.8081 8.81993 12.9212C8.83785 12.7273 8.84681 12.5333 8.84681 12.3394C8.86473 12.1455 8.86473 11.9677 8.84681 11.8061C8.84681 11.6445 8.81097 11.5232 8.73929 11.4424C8.59593 11.2647 8.30025 11.0303 7.85225 10.7394C7.42217 10.4485 6.92041 10.1333 6.34697 9.79395C5.77353 9.45456 5.20009 9.10709 4.62665 8.75153C4.07113 8.39597 3.58729 8.05658 3.17513 7.73335C2.78089 7.39395 2.54793 7.10305 2.47625 6.86062C2.42249 6.68284 2.37769 6.48082 2.34185 6.25456C2.30601 6.01214 2.28809 5.76163 2.28809 5.50305C2.28809 5.24446 2.29705 5.00204 2.31497 4.77577C2.35081 4.53335 2.39561 4.33133 2.44937 4.16971C2.61065 3.89496 2.87049 3.59597 3.22889 3.27274C3.58729 2.93335 3.99049 2.60204 4.43849 2.2788C4.90441 1.93941 5.37033 1.64042 5.83625 1.38183C6.32009 1.10709 6.76809 0.888904 7.18025 0.727288C7.61033 0.565671 7.95977 0.484863 8.22857 0.484863C8.33609 0.484863 8.52425 0.492944 8.79305 0.509106C9.07977 0.509106 9.41129 0.525267 9.78761 0.557591C10.1818 0.573752 10.585 0.597995 10.9972 0.630318C11.4273 0.662641 11.8394 0.703045 12.2337 0.75153C12.6279 0.800015 12.9774 0.8485 13.282 0.896985L13.067 5.06668H11.5617L11.1585 2.59395C10.8897 2.48082 10.5671 2.38385 10.1908 2.30305C9.83241 2.20608 9.47401 2.13335 9.11561 2.08486C8.75721 2.03638 8.45257 2.01214 8.20169 2.01214C8.05833 2.01214 7.93289 2.0283 7.82537 2.06062C7.71785 2.07678 7.62825 2.10102 7.55657 2.13335C7.50281 2.16567 7.45801 2.21416 7.42217 2.2788C7.35049 2.39193 7.29673 2.56971 7.26089 2.81214C7.24297 3.05456 7.23401 3.31315 7.23401 3.58789C7.25193 3.84648 7.27881 4.0889 7.31465 4.31517C7.35049 4.52527 7.40425 4.66264 7.47593 4.72729C7.69097 4.93739 7.98665 5.16365 8.36297 5.40608C8.75721 5.6485 9.18729 5.899 9.65321 6.15759C10.137 6.41618 10.6209 6.69092 11.1047 6.98183C11.6065 7.25658 12.0634 7.54749 12.4756 7.85456C12.9057 8.14547 13.2641 8.43638 13.5508 8.72729C13.6046 8.92123 13.6404 9.19597 13.6583 9.55153C13.6942 9.90709 13.7121 10.2869 13.7121 10.6909C13.7121 11.0788 13.6942 11.4424 13.6583 11.7818C13.6404 12.1212 13.6046 12.3717 13.5508 12.5333C13.3895 12.8404 13.1118 13.1717 12.7175 13.5273C12.3233 13.8667 11.8753 14.1899 11.3735 14.497C10.8897 14.8041 10.4238 15.0546 9.97577 15.2485C9.52777 15.4263 9.16937 15.5152 8.90057 15.5152C8.56009 15.5152 8.10313 15.5071 7.52969 15.4909C6.97417 15.4748 6.37385 15.4505 5.72873 15.4182C5.08361 15.402 4.46537 15.3778 3.87401 15.3455C3.28265 15.3293 2.78089 15.3051 2.36873 15.2727Z" fill="#9D84B8"/>
</svg>
